<?xml version="1.0" standalone="no"?>
<!DOCTYPE svg PUBLIC "-//W3C//DTD SVG 1.1//EN" "http://www.w3.org/Graphics/SVG/1.1/DTD/svg11.dtd" >
<svg xmlns="http://www.w3.org/2000/svg">
<metadata>Generated by IcoMoon</metadata>
<defs>
<font id="icomoon" horiz-adv-x="1024">
<font-face units-per-em="1024" ascent="960" descent="-64" />
<missing-glyph horiz-adv-x="1024" />
<glyph unicode="&#x20;" horiz-adv-x="512" d="" />
<glyph unicode="&#xe600;" glyph-name="assessments-icon" d="M839.68 389.12l-23.040 17.92c-7.68 7.68-17.92 5.12-25.6 0l-184.32-194.56c-7.68-7.68-17.92-7.68-25.6 0l-94.72 94.72c-7.68 7.68-17.92 7.68-25.6 0l-25.6-25.6c-7.68-7.68-7.68-17.92 0-25.6l148.48-161.28c7.68-7.68 17.92-7.68 23.040 0l230.4 240.64c28.16 28.16 25.6 30.72 2.56 53.76zM460.8 724.48c-28.16 0-28.16-51.2-28.16-51.2h53.76c2.56 0 2.56 51.2-25.6 51.2zM401.92 307.2l40.96 38.4c12.8 10.24 23.040 12.8 40.96 12.8 15.36 0 40.96-15.36 53.76-25.6l61.44-64 161.28 166.4c0 0 0 186.88 0 238.080s-53.76 51.2-53.76 51.2h-107.52c-5.12 51.2-53.76 104.96-133.12 104.96-81.92 0-130.56-51.2-133.12-104.96h-112.64c0 0-53.76 0-53.76-51.2v-522.24c0-51.2 53.76-51.2 53.76-51.2h302.080l-133.12 130.56c-23.040 23.040-12.8 53.76 12.8 76.8zM650.24 412.16h-240.64c0 0-28.16 0-28.16 25.6s28.16 25.6 28.16 25.6h240.64c0 0 28.16 0 28.16-25.6-2.56-25.6-28.16-25.6-28.16-25.6zM650.24 517.12h-240.64c0 0-28.16 0-28.16 25.6s28.16 25.6 28.16 25.6h240.64c0 0 28.16 0 28.16-25.6-2.56-25.6-28.16-25.6-28.16-25.6zM273.92 673.28c53.76 0 107.52 0 107.52 0s0 99.84 81.92 99.84c79.36 0 81.92-99.84 79.36-99.84 0 0 53.76 0 107.52 0s53.76-51.2 53.76-51.2h-483.84c0 0 0 51.2 53.76 51.2zM299.52 412.16h-25.6c0 0-25.6 0-25.6 25.6s25.6 25.6 25.6 25.6h25.6c0 0 28.16 0 28.16-25.6s-28.16-25.6-28.16-25.6zM299.52 517.12h-25.6c0 0-25.6 0-25.6 25.6s25.6 25.6 25.6 25.6h25.6c0 0 28.16 0 28.16-25.6s-28.16-25.6-28.16-25.6z" />
<glyph unicode="&#xe601;" glyph-name="back-to-icon" d="M512 739.84c-161.28 0-291.84-130.56-291.84-291.84s130.56-291.84 291.84-291.84c161.28 0 291.84 130.56 291.84 291.84s-130.56 291.84-291.84 291.84zM512 209.92c-130.56 0-238.080 107.52-238.080 238.080s107.52 238.080 238.080 238.080 238.080-107.52 238.080-238.080c0-130.56-107.52-238.080-238.080-238.080zM550.4 568.32c-5.12 5.12-10.24 7.68-15.36 7.68s-12.8-2.56-15.36-7.68l-104.96-102.4c-10.24-7.68-10.24-23.040 0-33.28l104.96-102.4c10.24-7.68 23.040-7.68 33.28 0s10.24 23.040 0 33.28l-92.16 84.48 89.6 87.040c10.24 10.24 10.24 25.6 0 33.28z" />
<glyph unicode="&#xe602;" glyph-name="cancel-icon" d="M512 798.72c-186.88 0-340.48-153.6-340.48-340.48s153.6-340.48 340.48-340.48 340.48 153.6 340.48 340.48-153.6 340.48-340.48 340.48zM512 199.68c-143.36 0-258.56 115.2-258.56 258.56s115.2 261.12 258.56 261.12 258.56-117.76 258.56-258.56-115.2-261.12-258.56-261.12zM632.32 578.56c-17.92 17.92-48.64 17.92-69.12 0 0 0 0 0 0 0v0l-51.2-51.2-51.2 51.2c-17.92 17.92-48.64 17.92-69.12 0-17.92-17.92-17.92-48.64 0-69.12l51.2-51.2-51.2-51.2c-17.92-17.92-17.92-48.64 0-69.12 17.92-17.92 48.64-17.92 69.12 0l51.2 51.2 51.2-51.2c0 0 0 0 0 0 17.92-17.92 48.64-17.92 69.12 0 17.92 17.92 17.92 48.64 0 69.12 0 0 0 0 0 0v0l-51.2 51.2 51.2 51.2c0 0 0 0 0 0 17.92 20.48 17.92 51.2 0 69.12z" />
<glyph unicode="&#xe603;" glyph-name="career-coach-icon" d="M363.52 665.6c7.68 0 15.36 7.68 15.36 17.92v87.040c0 10.24-7.68 17.92-15.36 17.92s-15.36-7.68-15.36-17.92v-87.040c-2.56-10.24 5.12-17.92 15.36-17.92zM276.48 634.88c5.12-7.68 15.36-7.68 23.040 0 5.12 7.68 5.12 17.92 0 23.040l-58.88 64c-5.12 7.68-15.36 7.68-23.040 0-5.12-7.68-5.12-17.92 0-23.040l58.88-64zM271.36 570.88c0 10.24-7.68 17.92-15.36 17.92h-81.92c-7.68 0-15.36-7.68-15.36-17.92s7.68-17.92 15.36-17.92h81.92c7.68 2.56 15.36 10.24 15.36 17.92zM721.92 468.48l104.96 263.68-28.16 74.24h-243.2c0 0-238.080-207.36-317.44-371.2-2.56-5.12-5.12-10.24-7.68-12.8 0 0 0-2.56-2.56-2.56v0c-12.8-33.28-23.040-74.24-23.040-117.76 0-122.88 64-220.16 143.36-220.16h40.96c0-2.56 0-2.56 0-5.12 0-35.84 28.16-66.56 61.44-66.56s61.44 30.72 61.44 66.56c0 2.56 0 2.56 0 5.12h110.080c79.36 0 143.36 99.84 143.36 220.16 5.12 66.56-15.36 125.44-43.52 166.4v0zM455.68 35.84c-20.48 0-35.84 17.92-35.84 38.4 0 2.56 0 2.56 0 5.12h71.68c0-2.56 0-2.56 0-5.12 0-20.48-15.36-38.4-35.84-38.4zM399.36 563.2l43.52 46.080h202.24l-43.52-46.080h-202.24zM732.16 296.96c0-84.48-40.96-158.72-89.6-158.72s-89.6 71.68-89.6 158.72c0 84.48 40.96 156.16 89.6 156.16s89.6-71.68 89.6-156.16z" />
<glyph unicode="&#xe604;" glyph-name="career-planning-icon" d="M652.8 519.68c2.56 0 2.56 0 0 0 20.48 0 35.84 7.68 48.64 20.48 51.2 61.44 56.32 76.8 56.32 94.72 0 20.48 0 28.16-74.24 128 7.68 12.8 12.8 25.6 15.36 38.4 0 20.48-7.68 40.96-20.48 56.32s-33.28 23.040-53.76 23.040c-30.72 0-66.56-15.36-92.16-30.72-102.4-2.56-156.16-71.68-176.64-102.4-94.72-145.92-20.48-335.36-15.36-350.72 2.56-5.12 7.68-15.36 12.8-23.040-2.56-5.12-7.68-7.68-10.24-15.36-7.68-10.24-10.24-20.48-12.8-28.16-5.12-5.12-10.24-12.8-10.24-20.48 0 0 0-2.56 0-2.56-15.36-10.24-40.96-28.16-56.32-56.32-20.48-40.96-12.8-84.48-12.8-89.6 2.56-10.24 7.68-15.36 15.36-20.48l215.040-104.96c5.12-2.56 7.68-2.56 12.8-2.56s7.68 0 12.8 2.56l215.040 104.96c7.68 5.12 15.36 12.8 15.36 20.48 0 5.12 10.24 48.64-12.8 89.6-15.36 28.16-38.4 46.080-56.32 56.32 0 0 0 2.56 0 2.56-2.56 7.68-5.12 15.36-10.24 20.48-2.56 7.68-5.12 17.92-12.8 28.16-5.12 7.68-10.24 12.8-15.36 17.92 10.24 15.36 12.8 33.28 7.68 51.2-7.68 20.48-23.040 58.88-38.4 99.84 7.68-5.12 15.36-7.68 25.6-7.68h28.16zM389.12 320c0 0 2.56 5.12 5.12 10.24s5.12 7.68 7.68 7.68c33.28-12.8 71.68-20.48 117.76-20.48 30.72 0 58.88 2.56 84.48 10.24 2.56-2.56 2.56-5.12 2.56-7.68 0-7.68 2.56-15.36 10.24-23.040-15.36-10.24-51.2-25.6-117.76-25.6s-99.84 15.36-117.76 25.6c5.12 5.12 7.68 12.8 7.68 23.040zM686.080 189.44l-189.44-92.16-189.44 92.16c0 10.24 2.56 23.040 7.68 35.84 5.12 10.24 15.36 20.48 25.6 28.16 25.6-17.92 71.68-38.4 156.16-38.4s130.56 20.48 156.16 40.96c10.24-7.68 20.48-15.36 25.6-28.16 5.12-15.36 7.68-28.16 7.68-38.4zM586.24 409.6c-15.36-17.92-25.6-30.72-79.36-30.72-5.12 0-10.24 0-15.36 0-84.48 2.56-94.72 38.4-94.72 38.4s-71.68 171.52 10.24 296.96c20.48 30.72 64 74.24 135.68 74.24 2.56 0 5.12 0 7.68 0 0 0 51.2 30.72 76.8 30.72 5.12 0 7.68 0 10.24-2.56 15.36-15.36-30.72-48.64-30.72-48.64s94.72-120.32 94.72-128c0-7.68-43.52-61.44-43.52-61.44h-25.6l-46.080 33.28-81.92 2.56c0 2.56 66.56-158.72 81.92-204.8z" />
<glyph unicode="&#xe605;" glyph-name="chevron-icon" d="M87.040 166.4v166.4l204.8 115.2-204.8 115.2v166.4l381.44-212.48v-138.24l-381.44-212.48zM558.080 166.4v166.4l204.8 115.2-204.8 115.2v166.4l381.44-212.48v-138.24l-381.44-212.48z" />
<glyph unicode="&#xe606;" glyph-name="close-deal-icon" d="M934.4 570.88c0 5.12 0 7.68 0 12.8-7.68 40.96-43.52 74.24-87.040 74.24h-133.12c-12.8 97.28-71.68 138.24-202.24 138.24s-189.44-40.96-197.12-138.24h-135.68c-43.52 0-81.92-33.28-87.040-74.24 0-2.56-2.56-7.68 0-12.8 0 0 0-2.56 0-2.56v-432.64c0-48.64 40.96-89.6 89.6-89.6h663.040c48.64 0 89.6 40.96 89.6 89.6v432.64c0 2.56 0 2.56 0 2.56zM512 727.040c110.080 0 125.44-28.16 128-69.12h-256c2.56 40.96 17.92 69.12 128 69.12zM179.2 604.16h665.6c17.92 0 30.72-10.24 35.84-25.6l-71.68-122.88c-12.8-23.040-46.080-40.96-71.68-40.96h-133.12v12.8c0 30.72-25.6 56.32-58.88 56.32h-66.56c-30.72 0-58.88-25.6-58.88-56.32v-12.8h-133.12c-25.6 0-58.88 20.48-71.68 40.96l-71.68 122.88c5.12 15.36 20.48 25.6 35.84 25.6zM550.4 427.52v-97.28c0-2.56-2.56-5.12-5.12-5.12h-66.56c-2.56 0-5.12 2.56-5.12 5.12v97.28c0 2.56 2.56 5.12 5.12 5.12h66.56c2.56 0 5.12-2.56 5.12-5.12zM844.8 99.84h-665.6c-20.48 0-35.84 15.36-35.84 35.84v340.48l28.16-46.080c23.040-38.4 74.24-66.56 117.76-66.56h133.12v-30.72c0-30.72 25.6-56.32 58.88-56.32h66.56c30.72 0 58.88 25.6 58.88 56.32v30.72h133.12c43.52 0 94.72 30.72 117.76 66.56l28.16 46.080v-340.48c-5.12-20.48-20.48-35.84-40.96-35.84z" />
<glyph unicode="&#xe607;" glyph-name="dashboard-icon" d="M161.28 343.040v-279.040h250.88v184.32c0 48.64 43.52 89.6 94.72 89.6 53.76 0 94.72-40.96 94.72-89.6v-184.32h250.88v279.040l-345.6 325.12-345.6-325.12zM975.36 450.56l-437.76 412.16c-17.92 15.36-46.080 15.36-61.44 0l-437.76-412.16c-17.92-15.36-17.92-43.52 0-58.88s46.080-15.36 61.44 0c0 0 353.28 332.8 407.040 384 53.76-51.2 407.040-384 407.040-384 17.92-15.36 46.080-15.36 61.44 0 17.92 15.36 17.92 40.96 0 58.88z" />
<glyph unicode="&#xe608;" glyph-name="discovery-icon" d="M512 81.92l-87.040 279.040-281.6 87.040 279.040 87.040 89.6 281.6 87.040-279.040 281.6-89.6-279.040-87.040-89.6-279.040zM634.88 573.44l30.72-10.24 74.24 112.64-112.64-74.24 7.68-28.16zM386.56 573.44l10.24 30.72-112.64 74.24 74.24-112.64 28.16 7.68zM634.88 325.12l-7.68-30.72 112.64-74.24-74.24 112.64-30.72-7.68zM386.56 325.12l-28.16 7.68-74.24-112.64 112.64 74.24-10.24 30.72zM942.080 448c0-238.080-192-430.080-430.080-430.080s-430.080 192-430.080 430.080c0 238.080 192 430.080 430.080 430.080 235.52 0 430.080-192 430.080-430.080zM880.64 448c0 204.8-166.4 368.64-368.64 368.64s-368.64-163.84-368.64-368.64c0-202.24 163.84-368.64 368.64-368.64 202.24 2.56 368.64 166.4 368.64 368.64z" />
<glyph unicode="&#xe609;" glyph-name="download-icon" d="M616.96 422.4h-43.52v192c0 7.68-5.12 12.8-12.8 12.8h-99.84c-7.68 0-12.8-5.12-12.8-12.8v-192h-43.52c-10.24 0-15.36-12.8-7.68-20.48 35.84-43.52 71.68-84.48 104.96-128 2.56-2.56 5.12-5.12 7.68-5.12s5.12 0 7.68 5.12c35.84 43.52 71.68 84.48 104.96 128 10.24 7.68 7.68 20.48-5.12 20.48zM512 747.52c-163.84 0-296.96-133.12-296.96-296.96s133.12-296.96 296.96-296.96c163.84 0 296.96 133.12 296.96 296.96s-133.12 296.96-296.96 296.96zM512 199.68c-138.24 0-250.88 112.64-250.88 250.88s112.64 250.88 250.88 250.88c138.24 0 250.88-112.64 250.88-250.88s-112.64-250.88-250.88-250.88z" />
<glyph unicode="&#xe60a;" glyph-name="edit-icon" d="M657.92 573.44h122.88l-122.88 120.32v-120.32zM793.6 527.36h-179.2v176.64h-225.28v-120.32l-43.52 43.52v120.32h325.12l168.96-163.84v-407.040h-494.080v209.92l46.080-43.52v-120.32h401.92v304.64zM332.8 593.92l212.48-209.92-79.36-76.8-209.92 209.92 76.8 76.8zM238.080 535.040l-46.080 35.84c-12.8 12.8-7.68 43.52 7.68 56.32l23.040 23.040c15.36 15.36 40.96 20.48 56.32 5.12l38.4-43.52-79.36-76.8zM581.12 263.68l-94.72 28.16 79.36 76.8 25.6-94.72-10.24-10.24z" />
<glyph unicode="&#xe60b;" glyph-name="events-icon" d="M314.88 632.32c25.6 0 46.080 20.48 46.080 46.080v151.040c0 25.6-20.48 46.080-46.080 46.080s-46.080-20.48-46.080-46.080v-151.040c0-25.6 20.48-46.080 46.080-46.080zM698.88 632.32c25.6 0 46.080 20.48 46.080 46.080v151.040c0 25.6-20.48 46.080-46.080 46.080s-46.080-20.48-46.080-46.080v-151.040c-2.56-25.6 17.92-46.080 46.080-46.080zM888.32 798.72h-115.2v-92.16h66.56v-171.52h-668.16v171.52h66.56v92.16h-115.2c-25.6 0-46.080-20.48-46.080-46.080v-640c0-25.6 20.48-46.080 46.080-46.080h765.44c25.6 0 46.080 20.48 46.080 46.080v640c2.56 25.6-20.48 46.080-46.080 46.080zM363.52 442.88h97.28v-94.72h-97.28v94.72zM268.8 158.72h-97.28v94.72h97.28v-94.72zM268.8 348.16h-97.28v94.72h97.28v-94.72zM363.52 158.72v94.72h97.28v-94.72c0 0 0 0 0 0h-97.28zM650.24 158.72h-94.72c0 0 0 0 0 0v94.72h94.72v-94.72zM650.24 348.16h-94.72v94.72h94.72v-94.72zM842.24 158.72h-97.28v94.72h97.28v-94.72zM842.24 348.16h-97.28v94.72h97.28v-94.72zM622.080 798.72h-230.4v-92.16h230.4v92.16z" />
<glyph unicode="&#xe60c;" glyph-name="favorite-icon" d="M271.36 885.76c0 17.92 15.36 33.28 33.28 33.28h414.72c17.92 0 33.28-15.36 33.28-33.28v-908.8c0-17.92-10.24-23.040-23.040-10.24l-192 189.44c-12.8 12.8-33.28 12.8-46.080 0l-194.56-189.44c-12.8-12.8-23.040-7.68-23.040 10.24l-2.56 908.8z" />
<glyph unicode="&#xe60d;" glyph-name="help-icon" d="M698.88 488.96l-84.48-115.2c-12.8-15.36-20.48-38.4-20.48-58.88v-23.040h-151.040v35.84c0 48.64 12.8 81.92 43.52 120.32l84.48 110.080c17.92 23.040 33.28 51.2 33.28 76.8 0 53.76-35.84 94.72-94.72 94.72-61.44 0-92.16-43.52-92.16-97.28h-151.040c0 143.36 107.52 230.4 243.2 230.4 130.56 0 243.2-84.48 243.2-230.4 2.56-56.32-20.48-102.4-53.76-143.36zM437.76 33.28v153.6h158.72v-153.6h-158.72z" />
<glyph unicode="&#xe60e;" glyph-name="job-openings-icon" d="M832 706.56c-5.12 2.56-12.8 2.56-17.92 0-117.76-64-261.12-97.28-450.56-104.96-10.24 0-17.92-7.68-17.92-17.92v-184.32c0-10.24 7.68-17.92 17.92-17.92 192-7.68 335.36-40.96 450.56-104.96 2.56-2.56 5.12-2.56 7.68-2.56s5.12 0 10.24 2.56c5.12 2.56 7.68 10.24 7.68 15.36v399.36c2.56 5.12-2.56 12.8-7.68 15.36zM294.4 599.040c-58.88 0-110.080-48.64-110.080-107.52s48.64-107.52 110.080-107.52c10.24 0 17.92 7.68 17.92 17.92v181.76c0 7.68-7.68 15.36-17.92 15.36zM432.64 332.8c-2.56 7.68-10.24 15.36-20.48 15.36l-40.96 2.56c-7.68 0-15.36-2.56-17.92-7.68-5.12-5.12-5.12-12.8-2.56-20.48l38.4-122.88c2.56-10.24 12.8-15.36 20.48-15.36h43.52c0 0 0 0 0 0 12.8 0 23.040 10.24 23.040 23.040 0 2.56 0 5.12-2.56 7.68l-40.96 117.76z" />
<glyph unicode="&#xe60f;" glyph-name="job-search-icon" d="M494.080 250.88h245.76v28.16h-245.76v-28.16zM494.080 332.8h245.76v28.16h-245.76v-28.16zM494.080 412.16h245.76v28.16h-245.76v-28.16zM611.84 711.68c-28.16 56.32-84.48 94.72-148.48 94.72-92.16 0-168.96-79.36-168.96-174.080 0-33.28 10.24-64 25.6-92.16l-158.72-168.96c-12.8-12.8-10.24-35.84 5.12-51.2s35.84-17.92 48.64-7.68l158.72 166.4v-373.76h481.28v606.72h-243.2zM437.76 529.92c-5.12 2.56-10.24 2.56-15.36 5.12-2.56 0-2.56 2.56-5.12 2.56-5.12 2.56-7.68 5.12-12.8 7.68-2.56 0-2.56 2.56-5.12 2.56-2.56 2.56-7.68 7.68-10.24 10.24-17.92 17.92-28.16 43.52-28.16 71.68 0 58.88 46.080 104.96 102.4 104.96 25.6 0 51.2-10.24 69.12-28.16 2.56-2.56 7.68-7.68 10.24-10.24s2.56-2.56 5.12-5.12c2.56-5.12 5.12-7.68 7.68-12.8 0-2.56 2.56-5.12 2.56-5.12 2.56-5.12 2.56-10.24 5.12-15.36 0-2.56 2.56-5.12 2.56-5.12 2.56-7.68 2.56-15.36 2.56-23.040 0-58.88-46.080-104.96-102.4-104.96 0 0 0 0 0 0-7.68 0-15.36 0-20.48 2.56-5.12 0-7.68 0-7.68 2.56zM785.92 176.64h-343.040v279.040c7.68 0 12.8-2.56 20.48-2.56 92.16 0 168.96 79.36 168.96 174.080 0 2.56 0 7.68 0 10.24h153.6v-460.8z" />
<glyph unicode="&#xe610;" glyph-name="messages-icon" d="M593.92 542.72h-245.76c-38.4 0-69.12-28.16-69.12-66.56v-102.4c0-35.84 30.72-66.56 69.12-66.56h2.56v-28.16c0-2.56 0-17.92 10.24-28.16 5.12-5.12 12.8-10.24 25.6-10.24v0c20.48 0 35.84 15.36 40.96 20.48l46.080 46.080h117.76c38.4 0 69.12 30.72 69.12 66.56v102.4c2.56 35.84-28.16 66.56-66.56 66.56zM634.88 373.76c0-20.48-17.92-38.4-40.96-38.4h-122.88c-2.56 0-7.68-2.56-10.24-5.12l-48.64-46.080-2.56-2.56c-5.12-5.12-12.8-12.8-20.48-12.8v0c-5.12 0-5.12 0-5.12 2.56-2.56 2.56-2.56 7.68-2.56 10.24v38.4c0 7.68-5.12 12.8-12.8 12.8h-17.92c-23.040 0-40.96 17.92-40.96 38.4v102.4c0 20.48 17.92 38.4 40.96 38.4h245.76c23.040 0 40.96-17.92 40.96-38.4v-99.84zM668.16 622.080h-192c-33.28 0-61.44-25.6-61.44-58.88 0-7.68 5.12-12.8 15.36-12.8 7.68 0 15.36 5.12 15.36 12.8 0 17.92 15.36 30.72 33.28 30.72h192c35.84 0 51.2-15.36 51.2-48.64v-71.68c0-17.92-15.36-30.72-33.28-30.72-7.68 0-15.36-5.12-15.36-12.8s5.12-12.8 15.36-12.8c33.28 0 61.44 25.6 61.44 58.88v71.68c-2.56 48.64-28.16 74.24-81.92 74.24zM542.72 460.8h-166.4c-7.68 0-15.36-5.12-15.36-12.8s5.12-12.8 15.36-12.8h166.4c7.68 0 15.36 5.12 15.36 12.8s-5.12 12.8-15.36 12.8zM471.040 401.92h-94.72c-7.68 0-15.36-5.12-15.36-12.8s5.12-12.8 15.36-12.8h94.72c7.68 0 15.36 5.12 15.36 12.8-2.56 7.68-7.68 12.8-15.36 12.8zM512 46.080c-230.4 0-417.28 186.88-417.28 417.28s186.88 414.72 417.28 414.72 417.28-186.88 417.28-417.28-189.44-414.72-417.28-414.72zM512 847.36c-212.48 0-386.56-174.080-386.56-386.56s174.080-384 386.56-384c212.48 0 386.56 174.080 386.56 386.56s-174.080 384-386.56 384z" />
<glyph unicode="&#xe611;" glyph-name="personal-branding-icon" d="M739.84 43.52h-471.040c-35.84 0-64 28.16-64 64v23.040c0 12.8 10.24 23.040 23.040 23.040h552.96c12.8 0 23.040-10.24 23.040-23.040v-23.040c0-35.84-30.72-64-64-64zM250.88 107.52v0c0-12.8 7.68-20.48 20.48-20.48h471.040c10.24 0 20.48 7.68 20.48 20.48v2.56h-512zM803.84 107.52h-599.040c-35.84 0-64 28.16-64 64v89.6c0 35.84 28.16 64 64 64h601.6c35.84 0 64-28.16 64-64v-89.6c-2.56-33.28-30.72-64-66.56-64zM204.8 281.6c-10.24 0-20.48-7.68-20.48-20.48v-89.6c0-10.24 7.68-20.48 20.48-20.48h601.6c10.24 0 20.48 7.68 20.48 20.48v89.6c0 10.24-7.68 20.48-20.48 20.48h-601.6zM550.4 348.16h-94.72c-12.8 0-23.040 10.24-23.040 23.040v115.2c-58.88 28.16-97.28 87.040-97.28 153.6 0 92.16 74.24 168.96 166.4 168.96s166.4-76.8 166.4-168.96c0-66.56-38.4-125.44-97.28-153.6v-115.2c2.56-12.8-7.68-23.040-20.48-23.040zM478.72 394.24h51.2v107.52c0 10.24 5.12 17.92 15.36 20.48 48.64 17.92 81.92 64 81.92 117.76 0 69.12-56.32 125.44-122.88 125.44s-122.88-56.32-122.88-125.44c0-53.76 33.28-99.84 81.92-117.76 7.68-2.56 15.36-12.8 15.36-20.48v-107.52zM581.12 281.6h-156.16c-12.8 0-23.040 10.24-23.040 23.040v66.56c0 12.8 10.24 23.040 23.040 23.040h156.16c12.8 0 23.040-10.24 23.040-23.040v-66.56c0-12.8-10.24-23.040-23.040-23.040zM448 325.12h110.080v23.040h-110.080v-23.040z" />
<glyph unicode="&#xe612;" glyph-name="profile-icon" d="M819.2 314.88c-17.92 43.52-135.68 79.36-135.68 79.36-43.52 15.36-56.32 30.72-61.44 38.4 0 0 0 2.56 0 2.56s0 0 0 0 0 0 0 2.56c0 0 0 0 0 0s0 0 0 0c-2.56 5.12-5.12 20.48-5.12 25.6 0 0 0 0 0-2.56 0 2.56 0 7.68 0 12.8 0 0 0 0 0 0 15.36 17.92 25.6 40.96 33.28 61.44 12.8 12.8 20.48 46.080 20.48 46.080 7.68 25.6 5.12 38.4 2.56 43.52 0 2.56 23.040 69.12-7.68 120.32 0 0-10.24 48.64-66.56 69.12-51.2 30.72-130.56 12.8-130.56 12.8-94.72-15.36-115.2-128-115.2-128-5.12-51.2 7.68-81.92 7.68-84.48-5.12-12.8 5.12-43.52 5.12-43.52 2.56-17.92 12.8-25.6 15.36-25.6 7.68-23.040 17.92-46.080 33.28-66.56 0 0 0 0 0 0s2.56-7.68 0-17.92c0 0 0 2.56 0 2.56 0-5.12-5.12-20.48-5.12-23.040 0 0 0 0 0 0-5.12-5.12-7.68-10.24-12.8-15.36-35.84-28.16-120.32-53.76-120.32-53.76-35.84-15.36-53.76-35.84-53.76-35.84-61.44-84.48-69.12-163.84-69.12-163.84 0-40.96 17.92-46.080 17.92-46.080 125.44-56.32 325.12-58.88 325.12-58.88 202.24-5.12 345.6 51.2 345.6 51.2 20.48 12.8 23.040 23.040 23.040 23.040 17.92 130.56-46.080 174.080-46.080 174.080z" />
<glyph unicode="&#xe613;" glyph-name="reset-icon" d="M721.92 673.28l-69.12-69.12c-38.4 38.4-92.16 61.44-148.48 61.44-117.76 0-209.92-94.72-209.92-209.92 0 0 0 0 0 0h81.92l-130.56-130.56-130.56 130.56h79.36c0 0 0 0 0 0 0 171.52 138.24 309.76 309.76 309.76 81.92 0 161.28-35.84 217.6-92.16zM888.32 465.92l-130.56 130.56-130.56-130.56h81.92c0 0 0 0 0 0 0-117.76-94.72-209.92-209.92-209.92-58.88 0-110.080 23.040-148.48 61.44l-69.12-69.12c56.32-56.32 133.12-92.16 220.16-92.16 171.52 0 309.76 138.24 309.76 309.76 0 0 0 0 0 0h76.8z" />
<glyph unicode="&#xe614;" glyph-name="resources-icon" d="M192 780.8v-117.76h-89.6v-522.24h721.92v64h97.28v576h-729.6zM780.8 184.32h-634.88v435.2h634.88v-435.2zM878.080 248.32h-53.76v414.72h-588.8v74.24h642.56v-488.96zM350.72 563.2h-140.8v-225.28h143.36v225.28zM309.76 381.44h-58.88v138.24h56.32v-138.24zM719.36 471.040h-327.68v-43.52h327.68v43.52zM719.36 563.2h-327.68v-43.52h327.68v43.52zM719.36 376.32h-327.68v-43.52h327.68v43.52zM721.92 279.040h-527.36v-43.52h529.92v43.52z" />
<glyph unicode="&#xe615;" glyph-name="retake-icon" d="M691.2 412.16c0-99.84-79.36-181.76-179.2-181.76s-179.2 81.92-179.2 181.76c0 99.84 79.36 181.76 179.2 181.76h89.6v-89.6l133.12 135.68-133.12 135.68v-89.6h-89.6c-148.48 0-268.8-122.88-268.8-271.36s120.32-273.92 268.8-273.92c148.48 0 268.8 122.88 268.8 271.36h-89.6z" />
<glyph unicode="&#xe616;" glyph-name="share-icon" d="M332.8 442.88c-23.040-35.84-51.2-122.88-28.16-104.96 58.88 46.080 120.32 79.36 176.64 97.28 53.76 17.92 102.4 23.040 145.92 12.8l10.24-2.56c0 0 0-110.080 2.56-110.080s248.32 197.12 248.32 199.68c0 0-245.76 186.88-248.32 186.88 0 0 0-99.84 0-99.84h-15.36c-48.64-2.56-94.72-15.36-138.24-38.4-61.44-33.28-115.2-81.92-153.6-140.8zM791.040 309.76c0-23.040-17.92-40.96-40.96-40.96h-476.16c-23.040 0-40.96 17.92-40.96 40.96v276.48c0 23.040 17.92 40.96 40.96 40.96h156.16l92.16 94.72h-248.32c-74.24 0-133.12-61.44-133.12-135.68v-273.92c0-74.24 58.88-135.68 133.12-135.68h478.72c74.24 0 133.12 61.44 133.12 135.68v122.88l-92.16-76.8v-48.64z" />
<glyph unicode="&#xe617;" glyph-name="tools-icon" d="M176.64 192c-15.36-15.36 2.56-35.84 17.92-46.080l28.16-20.48c15.36-12.8 40.96-30.72 58.88-15.36l194.56 204.8-71.68 84.48-227.84-207.36zM801.28 619.52c-2.56 5.12-5.12 12.8-12.8 15.36l-71.68 53.76c-7.68 5.12-20.48 7.68-30.72 7.68-23.040 10.24-33.28 20.48-38.4 28.16 7.68 12.8 7.68 23.040 0 28.16l-43.52 30.72c-10.24 7.68-33.28 0-51.2-17.92l-35.84-35.84c-17.92-17.92-23.040-38.4-12.8-46.080l43.52-30.72c7.68-5.12 17.92-2.56 30.72 2.56 33.28-7.68 33.28-28.16 33.28-28.16 0-5.12 0-10.24 0-12.8-5.12-23.040 0-46.080 0-46.080s-10.24-10.24-38.4-35.84c-15.36-12.8-23.040-17.92-28.16-20.48-2.56 0-2.56 0-5.12 0s-2.56 0-2.56 2.56l2.56-2.56c-10.24 0-20.48-5.12-30.72-12.8l-5.12-5.12 12.8-17.92 56.32-61.44 20.48 20.48c10.24 7.68 12.8 20.48 12.8 28.16 2.56 7.68 5.12 12.8 5.12 12.8l48.64 46.080c23.040-2.56 43.52 2.56 61.44 10.24 5.12 0 10.24 0 15.36 2.56 92.16-33.28 81.92-140.8 81.92-140.8 20.48 2.56 28.16 25.6 28.16 25.6 51.2 97.28-15.36 174.080-46.080 199.68zM680.96 294.4c0 0-30.72 5.12-48.64 28.16l-158.72 174.080-71.68 84.48c-20.48 20.48-17.92 46.080-17.92 46.080 7.68 135.68-138.24 107.52-145.92 107.52-12.8 0 2.56-12.8 2.56-12.8l56.32-38.4c20.48-10.24 12.8-23.040 12.8-23.040-7.68-33.28-53.76-46.080-53.76-46.080-12.8-7.68-20.48 2.56-20.48 2.56l-53.76 38.4c-25.6 15.36-23.040-15.36-23.040-15.36 15.36-89.6 102.4-92.16 102.4-92.16 30.72 0 46.080-5.12 53.76-7.68 2.56-2.56 5.12-7.68 7.68-10.24l58.88-64 163.84-194.56c5.12-5.12 10.24-10.24 15.36-12.8 0-7.68-2.56-20.48-7.68-38.4 0 0-23.040-71.68 74.24-110.080 0 0 33.28-10.24 23.040 15.36l-28.16 53.76c0 0-7.68 7.68 5.12 15.36 0 0 28.16 33.28 66.56 30.72 0 0 17.92 2.56 23.040-17.92l25.6-58.88c0 0 10.24-15.36 15.36-5.12 0 7.68 76.8 115.2-76.8 151.040z" />
<glyph unicode="&#xe618;" glyph-name="webinars-icon" d="M878.080 798.72h-724.48c-15.36 0-25.6-10.24-25.6-25.6v-509.44c-2.56-30.72 17.92-38.4 38.4-38.4h389.12v53.76h-371.2v368.64h665.6v-345.6h-23.040c-2.56-7.68 30.72-33.28 23.040-38.4l-61.44-38.4h76.8c25.6-2.56 35.84 12.8 38.4 38.4v509.44c0 17.92-10.24 25.6-25.6 25.6zM286.72 783.36c10.24 0 17.92-7.68 17.92-17.92s-7.68-17.92-17.92-17.92c-10.24 0-17.92 7.68-17.92 17.92s7.68 17.92 17.92 17.92zM235.52 783.36c10.24 0 17.92-7.68 17.92-17.92s-7.68-17.92-17.92-17.92c-10.24 0-17.92 7.68-17.92 17.92s7.68 17.92 17.92 17.92zM166.4 765.44c0 10.24 7.68 17.92 17.92 17.92 12.8 0 20.48-7.68 20.48-17.92s-7.68-17.92-17.92-17.92c-10.24 0-20.48 7.68-20.48 17.92zM849.92 683.52h-665.6v38.4h665.6v-38.4zM744.96 158.72v0l30.72-56.32c2.56-5.12 0-10.24-2.56-12.8l-28.16-15.36c-2.56 0-2.56 0-5.12 0s-7.68 2.56-7.68 5.12l-43.52 81.92-23.040 38.4-53.76-28.16c-2.56 0-2.56 0-5.12 0s-2.56 0-5.12 0c-2.56 2.56-5.12 5.12-5.12 7.68l-7.68 192c0 2.56 2.56 7.68 5.12 7.68s2.56 2.56 5.12 2.56c2.56 0 2.56 0 5.12-2.56l161.28-110.080c2.56 0 2.56-2.56 2.56-7.68 0-2.56-2.56-5.12-5.12-7.68l-53.76-28.16 35.84-66.56zM606.72 455.68l-156.16-89.6c-12.8-7.68-23.040 0-23.040 12.8v179.2c0 12.8 10.24 20.48 23.040 12.8l156.16-89.6c12.8-7.68 12.8-20.48 0-25.6z" />
<glyph unicode="&#xe619;" glyph-name="round-question-icon" d="M512 896c-245.76 0-445.44-199.68-445.44-445.44s199.68-442.88 445.44-442.88 445.44 199.68 445.44 445.44-199.68 442.88-445.44 442.88zM565.76 199.68h-102.4v97.28h102.4v-97.28zM629.76 488.96l-53.76-71.68c-7.68-10.24-12.8-25.6-12.8-38.4v-15.36h-94.72v23.040c0 30.72 7.68 51.2 28.16 76.8l53.76 69.12c12.8 15.36 20.48 33.28 20.48 48.64 0 33.28-23.040 58.88-58.88 58.88-38.4 0-58.88-28.16-58.88-61.44h-94.72c0 92.16 69.12 145.92 153.6 145.92 81.92 0 153.6-53.76 153.6-145.92 0-35.84-15.36-61.44-35.84-89.6z" />
<glyph unicode="&#xe61a;" glyph-name="round-check-icon" d="M524.8 908.8c-253.44 7.68-465.92-192-473.6-445.44 0-5.12 0-7.68 0-12.8 0-253.44 207.36-460.8 460.8-460.8s460.8 207.36 460.8 460.8c0 248.32-197.12 450.56-448 458.24zM716.8 675.84l92.16-92.16-273.92-271.36-92.16-92.16-227.84 227.84 92.16 92.16 135.68-135.68 273.92 271.36z" />
<glyph unicode="&#xe61b;" glyph-name="checked-icon" d="M965.12 919.040c-69.12-35.84-128-79.36-181.76-125.44-76.8 61.44-171.52 99.84-276.48 99.84-245.76 0-445.44-204.8-445.44-455.68s199.68-455.68 445.44-455.68 445.44 204.8 445.44 455.68c0 71.68-15.36 138.24-43.52 199.68 17.92 12.8 35.84 20.48 53.76 23.040-43.52 115.2-7.68 197.12 2.56 258.56zM506.88 819.2c84.48 0 163.84-28.16 225.28-76.8-179.2-194.56-238.080-424.96-238.080-424.96l-199.68 240.64-161.28-102.4c10.24 202.24 174.080 363.52 373.76 363.52zM135.68 378.88c112.64-61.44 250.88-179.2 371.2-327.68 0 0 0 0 0 0-189.44 0-343.040 143.36-371.2 327.68zM514.56 51.2c81.92 148.48 209.92 407.040 335.36 535.040 20.48-46.080 30.72-97.28 30.72-151.040 0-209.92-163.84-378.88-366.080-384z" />
<glyph unicode="&#xe900;" glyph-name="icon_document" d="M99.84 622.080v-614.4c0-17.92 12.8-30.72 30.72-30.72h760.32c17.92 0 30.72 12.8 30.72 30.72v524.8h-440.32c-12.8 0-23.040 7.68-28.16 17.92l-28.16 56.32c-5.12 10.24-15.36 17.92-28.16 17.92l-296.96-2.56zM811.52 560.64h-51.2v156.16h-130.56c-10.24 0-20.48 7.68-20.48 20.48v133.12h-345.6v-217.6h-51.2v248.32c0 10.24 7.68 20.48 20.48 20.48h378.88l199.68-202.24v-158.72zM476.16 583.68h217.6v-23.040h-217.6v23.040zM332.8 670.72h358.4v-23.040h-358.4v23.040zM332.8 755.2h232.96v-23.040h-232.96v23.040z" />
<glyph unicode="&#xe901;" glyph-name="icon_options" horiz-adv-x="791" d="M667.41 473.212h-224.84v224.711h-94.384v-224.711h-224.711v-94.384h224.711v-224.711h94.384v224.711h224.84z" />
<glyph unicode="&#xe902;" glyph-name="icon_upload" d="M404.48 476.16h43.52v-192c0-7.68 5.12-12.8 12.8-12.8h99.84c7.68 0 12.8 5.12 12.8 12.8v192h43.52c10.24 0 15.36 12.8 7.68 20.48-35.84 43.52-71.68 84.48-104.96 128-2.56 2.56-5.12 5.12-7.68 2.56-2.56 0-5.12 0-7.68-5.12-35.84-43.52-71.68-84.48-104.96-128-10.24-5.12-5.12-17.92 5.12-17.92zM512 151.040c163.84 0 296.96 133.12 296.96 296.96s-133.12 296.96-296.96 296.96c-163.84 0-296.96-133.12-296.96-296.96-2.56-163.84 133.12-296.96 296.96-296.96zM512 698.88c138.24 0 250.88-112.64 250.88-250.88s-112.64-250.88-250.88-250.88c-138.24 0-250.88 112.64-250.88 250.88 0 140.8 112.64 250.88 250.88 250.88z" />
<glyph unicode="&#xe903;" glyph-name="time" d="M549.987 480.206v230.4c0 21.471-17.342 37.987-37.987 37.987-21.471 0-37.987-17.342-37.987-37.987v-322.89c0.826-21.471 17.342-39.639 37.987-39.639 9.084 0 18.168 4.129 26.426 12.387l161.858 160.206c15.69 14.865 15.69 40.465 0 54.503-14.865 15.69-40.465 15.69-54.503 0l-95.794-94.968zM512 935.226c-270.865 0-491.355-220.49-491.355-491.355s220.49-491.355 491.355-491.355c270.865 0 491.355 220.49 491.355 491.355s-220.49 491.355-491.355 491.355v0zM512 56.568c-213.058 0-387.303 175.071-387.303 387.303s175.071 388.955 387.303 388.955 388.955-175.071 388.955-388.955c0-213.058-175.897-387.303-388.955-387.303z" />
</font>
</defs>
</svg>
